<?xml version="1.0" encoding="utf-8"?>
<!-- Generator: Adobe Illustrator 16.2.1, SVG Export Plug-In . SVG Version: 6.00 Build 0)  -->
<!DOCTYPE svg PUBLIC "-//W3C//DTD SVG 1.1//EN" "http://www.w3.org/Graphics/SVG/1.1/DTD/svg11.dtd">
<svg version="1.1" id="Layer_1" xmlns="http://www.w3.org/2000/svg" xmlns:xlink="http://www.w3.org/1999/xlink" x="0px" y="0px"
	 width="200px" height="130px" viewBox="0 0 200 130" enable-background="new 0 0 200 130" xml:space="preserve">
<g>
	<path opacity="0.6" fill="#CEC8A7" d="M100.399,127.424c-0.124,0-0.246-0.06-0.319-0.171L58.379,64.461l-3.92,45.142
		c-0.017,0.211-0.198,0.372-0.414,0.349c-0.211-0.018-0.368-0.203-0.35-0.414l4.012-46.198c-0.004-0.106,0.039-0.212,0.123-0.29
		c0.117-0.106,0.288-0.131,0.431-0.061c0.075,0.036,0.134,0.096,0.171,0.167l42.286,63.673c0.118,0.178,0.07,0.415-0.106,0.532
		C100.546,127.404,100.473,127.424,100.399,127.424z"/>
</g>
<g opacity="0.6">
	<path fill="#CEC8A7" d="M126.753,83.842c-0.036,0-0.073-0.004-0.107-0.015L57.984,63.698c-0.204-0.06-0.32-0.272-0.261-0.476
		s0.272-0.32,0.476-0.261L126.86,83.09c0.204,0.061,0.319,0.273,0.26,0.477C127.07,83.733,126.919,83.842,126.753,83.842z"/>
</g>
<g>
	<path opacity="0.6" fill="#CEC8A7" d="M197.906,63.842L197.906,63.842L58.092,63.714c-0.212,0-0.384-0.173-0.383-0.384
		c0-0.211,0.172-0.383,0.383-0.383h0.001l139.813,0.127c0.212,0,0.383,0.172,0.383,0.385
		C198.289,63.67,198.117,63.842,197.906,63.842z"/>
</g>
<g opacity="0.6">
	<path fill="#CEC8A7" d="M58.092,63.714c-0.173,0-0.332-0.118-0.373-0.294c-0.049-0.207,0.078-0.414,0.284-0.463l40.548-9.668
		c0.207-0.049,0.413,0.077,0.462,0.284c0.049,0.206-0.078,0.412-0.284,0.462l-40.548,9.668
		C58.15,63.711,58.121,63.714,58.092,63.714z"/>
</g>
<g>
	<path opacity="0.6" fill="#CEC8A7" d="M58.092,63.714c-0.094,0-0.188-0.034-0.262-0.104c-0.154-0.144-0.163-0.386-0.02-0.542
		l21.375-22.967c0.145-0.156,0.387-0.164,0.541-0.021c0.155,0.146,0.164,0.387,0.02,0.542L58.372,63.591
		C58.298,63.673,58.194,63.714,58.092,63.714z"/>
</g>
<path opacity="0.6" fill="#CEC8A7" d="M107.124,1.611L58.393,63.567c-0.074,0.097-0.188,0.146-0.301,0.146
	c-0.083,0-0.167-0.027-0.236-0.083c-0.167-0.131-0.196-0.371-0.064-0.537l48.73-61.957"/>
<g>
	<path opacity="0.6" fill="#CEC8A7" d="M58.092,63.715c-0.047,0-0.096-0.01-0.142-0.028c-0.196-0.077-0.293-0.301-0.215-0.497
		L69.28,34.128c0.078-0.198,0.301-0.293,0.498-0.215c0.196,0.077,0.293,0.301,0.215,0.497L58.448,63.472
		C58.389,63.622,58.244,63.715,58.092,63.715z"/>
</g>
<path opacity="0.6" fill="#CEC8A7" d="M51.454,20.033l7.017,43.235c0.034,0.209-0.108,0.405-0.317,0.44
	c-0.021,0.004-0.042,0.005-0.062,0.005c-0.186,0-0.348-0.134-0.378-0.322l-7.017-43.236"/>
<g>
	<path opacity="0.6" fill="#CEC8A7" d="M58.092,63.714c-0.072,0-0.145-0.021-0.209-0.062L29.075,44.867
		c-0.177-0.115-0.228-0.354-0.111-0.531c0.115-0.178,0.354-0.227,0.53-0.111L58.302,63.01c0.177,0.115,0.228,0.352,0.111,0.53
		C58.34,63.652,58.217,63.714,58.092,63.714z"/>
</g>
<g opacity="0.6">
	<path fill="#CEC8A7" d="M2.594,69.676c-0.193,0-0.357-0.146-0.38-0.343c-0.022-0.21,0.13-0.399,0.339-0.422l55.498-5.962
		c0.214-0.023,0.4,0.13,0.422,0.34c0.023,0.211-0.129,0.4-0.34,0.422L2.636,69.674C2.623,69.675,2.608,69.676,2.594,69.676z"/>
</g>
<g opacity="0.6">
	<path fill="#CEC8A7" d="M27.82,73.394c-0.162,0-0.313-0.104-0.365-0.268c-0.064-0.201,0.047-0.417,0.249-0.481l30.271-9.68
		c0.202-0.064,0.417,0.047,0.482,0.248c0.064,0.201-0.047,0.418-0.249,0.482l-30.271,9.68C27.898,73.387,27.859,73.394,27.82,73.394
		z"/>
</g>
<g opacity="0.6">
	<path fill="#CEC8A7" d="M39.926,85.652c-0.086,0-0.172-0.028-0.244-0.088c-0.162-0.135-0.186-0.377-0.051-0.54l18.166-21.938
		c0.135-0.163,0.377-0.187,0.54-0.051c0.162,0.135,0.185,0.377,0.051,0.54L40.222,85.514C40.146,85.605,40.036,85.652,39.926,85.652
		z"/>
</g>
<g opacity="0.6">
	<path fill="#CEC8A7" d="M77.77,84.055c-0.101,0-0.199-0.039-0.275-0.117L57.816,63.597c-0.147-0.152-0.144-0.395,0.009-0.542
		s0.396-0.143,0.542,0.01l19.679,20.34c0.146,0.152,0.143,0.396-0.009,0.543C77.962,84.019,77.866,84.055,77.77,84.055z"/>
</g>
<g opacity="0.6">
	<path fill="#CEC8A7" d="M9.184,66.082c-0.01-0.212,0.154-0.667,0.365-0.678l48.525-2.318c0.212-0.009,0.392,0.084,0.4,0.295
		c0.01,0.212-0.154,0.91-0.365,0.92L9.641,66.406C9.635,66.406,9.193,66.288,9.184,66.082z"/>
</g>
</svg>
