<?xml version="1.0" encoding="utf-8"?>
<!DOCTYPE svg PUBLIC "-//W3C//DTD SVG 1.1//EN" "http://www.w3.org/Graphics/SVG/1.1/DTD/svg11.dtd">
<svg version="1.1" id="Layer_1" xmlns="http://www.w3.org/2000/svg" xmlns:xlink="http://www.w3.org/1999/xlink" x="0px" y="0px"
	 width="400px" height="140px" viewBox="0 0 400 140" enable-background="new 0 0 400 140" xml:space="preserve">
	<g>
		<g>
			<path fill="#FFFFFF" d="M76.072,58.427h13.991v3.134H79.604v7.062h9.535v3.134h-9.535v9.106h-3.532V58.427z"/>
			<path fill="#FFFFFF" d="M92.799,69.645c0-6.632,5.148-11.515,11.582-11.515c6.433,0,11.582,4.883,11.582,11.515
				s-5.149,11.516-11.582,11.516C97.947,81.161,92.799,76.277,92.799,69.645z M112.301,69.645c0-4.75-3.268-8.315-7.92-8.315
				s-7.918,3.564-7.918,8.315c0,4.751,3.266,8.314,7.918,8.314S112.301,74.396,112.301,69.645z"/>
			<path fill="#FFFFFF" d="M123.285,80.863h-3.53V58.427h7.191c5.248,0,8.25,2.871,8.25,7.126c0,3.135-1.551,5.378-4.355,6.401
				l5.412,8.908h-3.862l-5.015-8.281h-0.431h-3.662V80.863z M126.816,69.547c3.333,0,4.719-1.32,4.719-3.993
				c0-2.705-1.42-3.992-4.719-3.992h-3.531v7.985H126.816z"/>
			<path fill="#FFFFFF" d="M139.485,58.427h14.286v3.134h-10.754v6.434h9.533v3.069h-9.533v6.664h11.217v3.135h-14.749V58.427z"/>
			<path fill="#FFFFFF" d="M157.103,58.427h3.729l6.401,15.079l6.204-15.079H177l-9.701,22.766h-0.197L157.103,58.427z"/>
			<path fill="#FFFFFF" d="M180.133,58.427h14.287v3.134h-10.757v6.434h9.536v3.069h-9.536v6.664h11.218v3.135h-14.748V58.427z"/>
			<path fill="#FFFFFF" d="M202.535,80.863h-3.529V58.427h7.192c5.247,0,8.247,2.871,8.247,7.126c0,3.135-1.551,5.378-4.355,6.401
				l5.413,8.908h-3.86l-5.016-8.281h-0.429h-3.663V80.863z M206.064,69.547c3.333,0,4.719-1.32,4.719-3.993
				c0-2.705-1.418-3.992-4.719-3.992h-3.529v7.985H206.064z"/>
			<path fill="#FFFFFF" d="M230.48,63.211v17.652h-2.013V57.965h0.197l15.112,18.113V58.427h2.012v22.899h-0.197L230.48,63.211z"/>
			<path fill="#FFFFFF" d="M273.535,58.427h2.244l5.479,17.454l6.763-17.982h0.165l6.797,17.982l5.444-17.454h2.111l-7.391,22.866
				h-0.165l-6.863-18.248l-6.994,18.248h-0.133L273.535,58.427z"/>
		</g>
		<g>
			<path fill="#FFFFFF" d="M318,98H57V43h261V98z M58,97h259V44H58V97z"/>
		</g>
		<g opacity="0.8">
				<image overflow="visible" opacity="0.35" width="227" height="158" xlink:href="3FFE3C057D74373E.png"  transform="matrix(1 0 0 1 189 -9)">
			</image>
			<g>
				<g>
					<g>
						<path fill="#CEC8A7" d="M302.399,133.424c-0.124,0-0.246-0.06-0.319-0.171L260.379,70.46l-3.92,45.142
							c-0.017,0.211-0.198,0.372-0.414,0.349c-0.211-0.018-0.368-0.203-0.35-0.414l4.012-46.198c-0.004-0.106,0.039-0.212,0.123-0.29
							c0.117-0.107,0.288-0.132,0.431-0.062c0.075,0.037,0.134,0.096,0.171,0.167l42.286,63.673c0.118,0.178,0.07,0.415-0.106,0.532
							C302.546,133.404,302.473,133.424,302.399,133.424z"/>
					</g>
					<g>
						<path fill="#CEC8A7" d="M328.753,89.842c-0.036,0-0.073-0.004-0.107-0.015l-68.661-20.129c-0.204-0.06-0.32-0.272-0.261-0.476
							c0.06-0.203,0.272-0.32,0.476-0.26L328.86,89.09c0.204,0.061,0.319,0.273,0.26,0.477
							C329.07,89.733,328.919,89.842,328.753,89.842z"/>
					</g>
					<g>
						<path fill="#CEC8A7" d="M399.906,69.841L399.906,69.841l-139.814-0.127c-0.212,0-0.384-0.173-0.383-0.384
							c0-0.211,0.172-0.383,0.383-0.383h0.001l139.813,0.127c0.212,0,0.383,0.172,0.383,0.384S400.117,69.841,399.906,69.841z"/>
					</g>
					<g>
						<path fill="#CEC8A7" d="M260.092,69.714c-0.173,0-0.332-0.118-0.373-0.294c-0.049-0.207,0.078-0.414,0.284-0.462l40.548-9.668
							c0.207-0.048,0.413,0.078,0.462,0.285c0.049,0.206-0.078,0.412-0.284,0.461l-40.548,9.668
							C260.15,69.71,260.121,69.714,260.092,69.714z"/>
					</g>
					<g>
						<path fill="#CEC8A7" d="M260.092,69.714c-0.094,0-0.188-0.034-0.262-0.104c-0.154-0.144-0.163-0.386-0.02-0.542l21.375-22.967
							c0.145-0.155,0.387-0.164,0.541-0.02c0.155,0.145,0.164,0.387,0.02,0.542l-21.374,22.967
							C260.298,69.673,260.194,69.714,260.092,69.714z"/>
					</g>
					<g>
						<path fill="#CEC8A7" d="M260.092,69.714c-0.083,0-0.167-0.027-0.236-0.083c-0.167-0.131-0.196-0.371-0.064-0.538l48.73-61.957
							c0.131-0.166,0.371-0.196,0.539-0.064c0.166,0.13,0.194,0.372,0.063,0.539l-48.731,61.957
							C260.318,69.664,260.205,69.714,260.092,69.714z"/>
					</g>
					<g>
						<path fill="#CEC8A7" d="M260.092,69.714c-0.047,0-0.096-0.009-0.142-0.028c-0.196-0.078-0.293-0.301-0.215-0.498l11.545-29.061
							c0.078-0.198,0.301-0.293,0.498-0.215c0.196,0.078,0.293,0.301,0.215,0.498l-11.545,29.061
							C260.389,69.622,260.244,69.714,260.092,69.714z"/>
					</g>
					<g>
						<path fill="#CEC8A7" d="M260.092,69.714c-0.186,0-0.348-0.134-0.378-0.322l-7.017-43.236c-0.034-0.209,0.108-0.406,0.317-0.44
							c0.213-0.035,0.405,0.108,0.439,0.317l7.017,43.236c0.034,0.209-0.108,0.406-0.317,0.44
							C260.133,69.712,260.111,69.714,260.092,69.714z"/>
					</g>
					<g>
						<path fill="#CEC8A7" d="M260.092,69.714c-0.072,0-0.145-0.021-0.209-0.062l-28.808-18.785
							c-0.177-0.115-0.228-0.353-0.111-0.531c0.115-0.177,0.354-0.227,0.53-0.111l28.808,18.785c0.177,0.115,0.228,0.353,0.111,0.531
							C260.34,69.652,260.217,69.714,260.092,69.714z"/>
					</g>
					<g>
						<path fill="#CEC8A7" d="M204.594,75.676c-0.193,0-0.357-0.146-0.38-0.343c-0.022-0.21,0.13-0.399,0.339-0.422l55.498-5.962
							c0.214-0.023,0.4,0.13,0.422,0.34c0.023,0.211-0.129,0.4-0.34,0.423l-55.497,5.962
							C204.623,75.675,204.608,75.676,204.594,75.676z"/>
					</g>
					<g>
						<path fill="#CEC8A7" d="M229.82,79.394c-0.162,0-0.313-0.104-0.365-0.268c-0.064-0.201,0.047-0.417,0.249-0.481l30.271-9.68
							c0.202-0.064,0.417,0.047,0.482,0.248c0.064,0.202-0.047,0.418-0.249,0.482l-30.271,9.68
							C229.898,79.387,229.859,79.394,229.82,79.394z"/>
					</g>
					<g>
						<path fill="#CEC8A7" d="M241.926,91.652c-0.086,0-0.172-0.028-0.244-0.088c-0.162-0.135-0.186-0.377-0.051-0.54l18.166-21.938
							c0.135-0.163,0.377-0.187,0.54-0.051c0.162,0.135,0.185,0.377,0.051,0.54l-18.166,21.938
							C242.146,91.605,242.036,91.652,241.926,91.652z"/>
					</g>
					<g>
						<path fill="#CEC8A7" d="M279.77,90.055c-0.101,0-0.199-0.039-0.275-0.117l-19.678-20.341c-0.147-0.152-0.144-0.395,0.009-0.542
							c0.152-0.147,0.396-0.143,0.542,0.01l19.679,20.34c0.146,0.152,0.143,0.396-0.009,0.543
							C279.962,90.019,279.866,90.055,279.77,90.055z"/>
					</g>
					<g>
						<path fill="#CEC8A7" d="M211.641,72.672c-0.203,0-0.447-0.384-0.457-0.59c-0.01-0.212,0.154-0.667,0.365-0.678l48.525-2.318
							c0.212-0.009,0.392,0.084,0.4,0.295c0.01,0.211-0.154,0.91-0.365,0.919C260.109,70.301,211.646,72.672,211.641,72.672z"/>
					</g>
				</g>
			</g>
		</g>
	</g>
</svg>
